<svg xmlns="http://www.w3.org/2000/svg" xmlns:xlink="http://www.w3.org/1999/xlink" width="221" height="297"
    viewBox="46 4 220 297">
    <defs>
        <!-- <mask id="4963b" width="2" height="2" x="-1" y="-1">
            <path fill="#fff" d="M45 2h221v297H45z" />
            <path
                d="M65.469 2.906h179.656c11.046 0 20 8.954 20 20v255.688c0 11.045-8.954 20-20 20H65.469c-11.046 0-20-8.955-20-20V22.906c0-11.046 8.954-20 20-20z" />
        </mask> -->
        <!-- <filter id="4963a" width="355" height="474" x="-22" y="-65" filterUnits="userSpaceOnUse">
            <feOffset dy="43" in="SourceGraphic" result="FeOffset1029Out" />
            <feGaussianBlur in="FeOffset1029Out" result="FeGaussianBlur1030Out" stdDeviation="22.8 22.8" />
        </filter> -->
        <clipPath id="4963f">
            <path fill="#fff"
                d="M248.297 119.5c41.016 0 74.265 33.194 74.265 74.14 0 40.947-33.25 74.141-74.265 74.141-41.016 0-74.266-33.194-74.266-74.14 0-40.947 33.25-74.141 74.266-74.141z" />
        </clipPath>
        <clipPath id="4963c">
            <path
                d="M65.469 2.906h179.656c11.046 0 20 8.954 20 20v255.688c0 11.045-8.954 20-20 20H65.469c-11.046 0-20-8.955-20-20V22.906c0-11.046 8.954-20 20-20z" />
        </clipPath>
    </defs>
    <g>
        <g>
            <g>
                <g>
                    <g>
                        <path fill="#021e40"
                            d="M65.469 2.906h179.656c11.046 0 20 8.954 20 20v255.688c0 11.045-8.954 20-20 20H65.469c-11.046 0-20-8.955-20-20V22.906c0-11.046 8.954-20 20-20z" />
                    </g>

                    <g clip-path="url(#4963c)">
                        <path fill="#03254d"
                            d="M77.984 190.469c39.428 0 71.39 31.962 71.39 71.39s-31.962 71.39-71.39 71.39-71.39-31.962-71.39-71.39 31.962-71.39 71.39-71.39z" />
                    </g>
                    <g clip-path="url(#4963c)">
                        <path fill="none" stroke="#f2b115" stroke-miterlimit="20" stroke-width="2"
                            d="M45.456 229.396v0l53.97-56.725v0l8.146 8.562v0l36.659-38.53v0l5.092 5.351v0l75.354-79.2v0l10.183 10.702v0l29.53-31.038v0"
                            clip-path="url(&quot;#4963d&quot;)" />
                    </g>
                    <g clip-path="url(#4963c)">
                        <path fill="none" stroke="#42c3af" stroke-miterlimit="20" stroke-width="2"
                            d="M45.456 221.238v0l46.948-49.398v0l7.086 7.457v0l31.89-33.553v0l4.428 4.66v0l65.55-68.97v0l8.858 9.32v0l25.689-27.028v0"
                            clip-path="url(&quot;#4963e&quot;)" />
                    </g>
                    <g clip-path="url(#4963c)">
                        <path fill="#3655c6"
                            d="M208.902 237.45c5.84 5.83 5.84 15.283 0 21.113l-24.673 24.632c-5.84 5.83-15.309 5.83-21.149 0-5.84-5.83-5.84-15.283 0-21.113l24.674-24.633c5.84-5.83 15.308-5.83 21.148 0z" />
                    </g>
                    <g clip-path="url(#4963c)">
                        <path fill="none" stroke="#f2b115" stroke-miterlimit="20" stroke-width="60"
                            d="M248.297 119.5c41.016 0 74.265 33.194 74.265 74.14 0 40.947-33.25 74.141-74.265 74.141-41.016 0-74.266-33.194-74.266-74.14 0-40.947 33.25-74.141 74.266-74.141z"
                            clip-path="url(&quot;#4963f&quot;)" />
                    </g>
                </g>
            </g>
            <g />
        </g>
    </g>
</svg>