<svg version="1.0" xmlns="http://www.w3.org/2000/svg" width="1920" height="198" viewBox="0 0 1920.000000 198.000000"
    preserveAspectRatio="xMidYMid meet">

    <g transform="translate(0.000000,198.000000) scale(0.100000,-0.100000)" fill="#f95157" stroke="none">
        <path d="M9185 1974 c-806 -23 -1560 -112 -2390 -280 -614 -125 -1055 -237
-2261 -574 -1232 -345 -1788 -481 -2439 -599 -659 -119 -1375 -191 -1902 -191
l-193 0 0 -165 0 -165 9600 0 9600 0 0 163 0 164 -322 6 c-583 11 -1138 64
-1773 168 -689 114 -1345 268 -2560 604 -1193 329 -1554 422 -2130 546 -769
166 -1553 271 -2290 308 -221 11 -769 20 -940 15z" />
    </g>
</svg>