<svg xmlns="http://www.w3.org/2000/svg" xmlns:xlink="http://www.w3.org/1999/xlink" width="220" height="297"
    viewBox="46 0 220 297">
    <defs>
        <mask id="461rb" width="2" height="2" x="-1" y="-1">
            <path fill="#fff" d="M45 2h220v297H45z" />
            <path
                d="M65.281 2.906h179.656c11.046 0 20 8.954 20 20v255.688c0 11.045-8.954 20-20 20H65.281c-11.046 0-20-8.955-20-20V22.906c0-11.046 8.954-20 20-20z" />
        </mask>
        <clipPath id="461rc">
            <path
                d="M65.281 2.906h179.656c11.046 0 20 8.954 20 20v255.688c0 11.045-8.954 20-20 20H65.281c-11.046 0-20-8.955-20-20V22.906c0-11.046 8.954-20 20-20z" />
        </clipPath>
    </defs>
    <g>
        <g>
            <g>
                <g>
                    <g>
                        <g filter="url(#461ra)">
                            <path fill="none"
                                d="M65.281 2.906h179.656c11.046 0 20 8.954 20 20v255.688c0 11.045-8.954 20-20 20H65.281c-11.046 0-20-8.955-20-20V22.906c0-11.046 8.954-20 20-20z"
                                mask="url(&quot;#461rb&quot;)" />
                            <path fill-opacity=".19"
                                d="M65.281 2.906h179.656c11.046 0 20 8.954 20 20v255.688c0 11.045-8.954 20-20 20H65.281c-11.046 0-20-8.955-20-20V22.906c0-11.046 8.954-20 20-20z" />
                        </g>
                        <path fill="#f88676"
                            d="M65.281 2.906h179.656c11.046 0 20 8.954 20 20v255.688c0 11.045-8.954 20-20 20H65.281c-11.046 0-20-8.955-20-20V22.906c0-11.046 8.954-20 20-20z" />
                    </g>
                    <g clip-path="url(#461rc)" opacity=".2">
                    </g>
                    <g>
                        <path fill="#42c3af"
                            d="M163.562 163.406c18.657 0 33.782 15.131 33.782 33.797 0 18.665-15.125 33.797-33.782 33.797-18.656 0-33.78-15.132-33.78-33.797 0-18.666 15.124-33.797 33.78-33.797z" />
                    </g>
                    <g>
                        <path fill="#f2b115" d="M129.781 231h67.563v67.594H129.78z" />
                    </g>
                    <g>
                        <path fill="#8440f4"
                            d="M231.14 231c18.666 0 33.797 15.131 33.797 33.797 0 18.665-15.13 33.797-33.796 33.797-18.666 0-33.797-15.132-33.797-33.797 0-18.666 15.131-33.797 33.797-33.797z" />
                    </g>
                    <g>
                        <path fill="#1f3eae"
                            d="M198.204 231.01c0-37.329-.092-67.59 0-67.59 37.329 0 66.745 30.261 66.745 67.59" />
                    </g>
                </g>
            </g>
            <g />
        </g>
    </g>
</svg>