<svg xmlns="http://www.w3.org/2000/svg" xmlns:xlink="http://www.w3.org/1999/xlink" width="220" height="297"
    viewBox="46 0 220 297">
    <defs>
        <clipPath id="vk1ic">
            <path
                d="M65.094 2.906H244.78c11.046 0 20 8.954 20 20v255.688c0 11.045-8.954 20-20 20H65.094c-11.046 0-20-8.955-20-20V22.906c0-11.046 8.954-20 20-20z" />
        </clipPath>
    </defs>
    <g>
        <g>
            <g>
                <g>
                    <g>
                        <g filter="url(#vk1ia)">
                            <path fill="none"
                                d="M65.094 2.906H244.78c11.046 0 20 8.954 20 20v255.688c0 11.045-8.954 20-20 20H65.094c-11.046 0-20-8.955-20-20V22.906c0-11.046 8.954-20 20-20z"
                                mask="url(&quot;#vk1ib&quot;)" />
                            <path fill-opacity=".19"
                                d="M65.094 2.906H244.78c11.046 0 20 8.954 20 20v255.688c0 11.045-8.954 20-20 20H65.094c-11.046 0-20-8.955-20-20V22.906c0-11.046 8.954-20 20-20z" />
                        </g>
                        <path fill="#313131"
                            d="M65.094 2.906H244.78c11.046 0 20 8.954 20 20v255.688c0 11.045-8.954 20-20 20H65.094c-11.046 0-20-8.955-20-20V22.906c0-11.046 8.954-20 20-20z" />
                    </g>
                    <g clip-path="url(#vk1ic)" opacity=".05">
                    </g>
                    <g clip-path="url(#vk1ic)" opacity=".1">
                        <path fill="#717171"
                            d="M84.812-29.219c42.923 0 77.72 34.803 77.72 77.735 0 42.93-34.797 77.734-77.72 77.734-42.922 0-77.718-34.803-77.718-77.734 0-42.932 34.796-77.735 77.718-77.735z" />
                    </g>
                    <g clip-path="url(#vk1ic)">
                        <path fill="#f2b115"
                            d="M79.75 101.75h47.312a4.219 4.219 0 0 1 0 8.437H79.75a4.219 4.219 0 1 1 0-8.437z" />
                    </g>
                    <g clip-path="url(#vk1ic)">
                        <path fill="#f88676"
                            d="M143.969 101.75h10.968a4.219 4.219 0 0 1 0 8.437H143.97a4.219 4.219 0 1 1 0-8.437z" />
                    </g>
                    <g clip-path="url(#vk1ic)">
                        <path fill="#3655c6"
                            d="M171.844 101.75h28.718a4.219 4.219 0 0 1 0 8.437h-28.718a4.219 4.219 0 1 1 0-8.437z" />
                    </g>
                    <g clip-path="url(#vk1ic)">
                        <path fill="#f2b115"
                            d="M217.469 101.75h6.75a4.219 4.219 0 0 1 0 8.437h-6.75a4.219 4.219 0 1 1 0-8.437z" />
                    </g>
                    <g clip-path="url(#vk1ic)">
                        <path fill="#8440f4"
                            d="M241.125 101.75h37.187a4.219 4.219 0 0 1 0 8.437h-37.187a4.219 4.219 0 1 1 0-8.437z" />
                    </g>
                    <g clip-path="url(#vk1ic)">
                        <path fill="#f2b115"
                            d="M188.719 128.78h47.343a4.219 4.219 0 1 1 0 8.439H188.72a4.219 4.219 0 1 1 0-8.438z" />
                    </g>
                    <g clip-path="url(#vk1ic)">
                        <path fill="#8440f4"
                            d="M160.844 128.78h11a4.219 4.219 0 1 1 0 8.439h-11a4.219 4.219 0 1 1 0-8.438z" />
                    </g>
                    <g clip-path="url(#vk1ic)">
                        <path fill="#3655c6"
                            d="M115.219 128.78h28.75a4.219 4.219 0 1 1 0 8.439h-28.75a4.219 4.219 0 1 1 0-8.438z" />
                    </g>
                    <g clip-path="url(#vk1ic)">
                        <path fill="#f2b115"
                            d="M91.562 128.78h6.782a4.219 4.219 0 1 1 0 8.439h-6.782a4.219 4.219 0 1 1 0-8.438z" />
                    </g>
                    <g clip-path="url(#vk1ic)">
                        <path fill="#8440f4"
                            d="M37.5 128.78h37.187a4.219 4.219 0 1 1 0 8.439H37.5a4.219 4.219 0 1 1 0-8.438z" />
                    </g>
                    <g clip-path="url(#vk1ic)">
                        <path fill="#f88676"
                            d="M37.506 155.812h25.332a4.224 4.224 0 0 1 4.224 4.225v.02a4.224 4.224 0 0 1-4.224 4.224H37.506a4.224 4.224 0 0 1-4.225-4.224v-.02a4.224 4.224 0 0 1 4.225-4.225z" />
                    </g>
                    <g clip-path="url(#vk1ic)">
                        <path fill="#8440f4"
                            d="M79.756 155.812h47.3a4.224 4.224 0 0 1 4.225 4.225v.02a4.224 4.224 0 0 1-4.224 4.224H79.756a4.224 4.224 0 0 1-4.225-4.224v-.02a4.224 4.224 0 0 1 4.225-4.225z" />
                    </g>
                    <g clip-path="url(#vk1ic)">
                        <path fill="#f88676"
                            d="M143.974 155.812h10.958a4.224 4.224 0 0 1 4.224 4.225v.02a4.224 4.224 0 0 1-4.224 4.224h-10.958a4.224 4.224 0 0 1-4.224-4.224v-.02a4.224 4.224 0 0 1 4.224-4.225z" />
                    </g>
                    <g clip-path="url(#vk1ic)">
                        <path fill="#3655c6"
                            d="M171.85 155.812h28.707a4.224 4.224 0 0 1 4.224 4.225v.02a4.224 4.224 0 0 1-4.224 4.224h-28.708a4.224 4.224 0 0 1-4.224-4.224v-.02a4.224 4.224 0 0 1 4.224-4.225z" />
                    </g>
                    <g clip-path="url(#vk1ic)">
                        <path fill="#f2b115"
                            d="M217.474 155.812h6.739a4.224 4.224 0 0 1 4.224 4.225v.02a4.224 4.224 0 0 1-4.224 4.224h-6.739a4.224 4.224 0 0 1-4.224-4.224v-.02a4.224 4.224 0 0 1 4.224-4.225z" />
                    </g>
                    <g clip-path="url(#vk1ic)">
                        <path fill="#f88676"
                            d="M241.13 155.812h37.177a4.224 4.224 0 0 1 4.224 4.225v.02a4.224 4.224 0 0 1-4.224 4.224H241.13a4.224 4.224 0 0 1-4.225-4.224v-.02a4.224 4.224 0 0 1 4.225-4.225z" />
                    </g>
                    <g clip-path="url(#vk1ic)">
                        <path fill="#3655c6"
                            d="M56.1 182.844h47.3a4.224 4.224 0 0 1 4.225 4.224v.02a4.224 4.224 0 0 1-4.224 4.224H56.099a4.224 4.224 0 0 1-4.224-4.224v-.02a4.224 4.224 0 0 1 4.224-4.224z" />
                    </g>
                    <g clip-path="url(#vk1ic)">
                        <path fill="#f2b115"
                            d="M120.318 182.844h10.958a4.224 4.224 0 0 1 4.224 4.224v.02a4.224 4.224 0 0 1-4.224 4.224h-10.958a4.224 4.224 0 0 1-4.224-4.224v-.02a4.224 4.224 0 0 1 4.224-4.224z" />
                    </g>
                    <g clip-path="url(#vk1ic)">
                        <path fill="#3655c6"
                            d="M148.193 182.844h28.708a4.224 4.224 0 0 1 4.224 4.224v.02a4.224 4.224 0 0 1-4.224 4.224h-28.708a4.224 4.224 0 0 1-4.224-4.224v-.02a4.224 4.224 0 0 1 4.224-4.224z" />
                    </g>
                    <g clip-path="url(#vk1ic)">
                        <path fill="#8440f4"
                            d="M217.474 182.844h37.177a4.224 4.224 0 0 1 4.224 4.224v.02a4.224 4.224 0 0 1-4.224 4.224h-37.177a4.224 4.224 0 0 1-4.224-4.224v-.02a4.224 4.224 0 0 1 4.224-4.224z" />
                    </g>
                    <g clip-path="url(#vk1ic)">
                        <path fill="#3655c6"
                            d="M252.943 209.875h25.364a4.224 4.224 0 0 1 4.224 4.224v.02a4.224 4.224 0 0 1-4.224 4.225h-25.364a4.224 4.224 0 0 1-4.224-4.225v-.02a4.224 4.224 0 0 1 4.224-4.224z" />
                    </g>
                    <g clip-path="url(#vk1ic)">
                        <path fill="#f2b115"
                            d="M188.724 209.875h47.333a4.224 4.224 0 0 1 4.224 4.224v.02a4.224 4.224 0 0 1-4.224 4.225h-47.333a4.224 4.224 0 0 1-4.224-4.225v-.02a4.224 4.224 0 0 1 4.224-4.224z" />
                    </g>
                    <g clip-path="url(#vk1ic)">
                        <path fill="#8440f4"
                            d="M160.85 209.875h10.988a4.224 4.224 0 0 1 4.224 4.224v.02a4.224 4.224 0 0 1-4.224 4.225H160.85a4.224 4.224 0 0 1-4.224-4.225v-.02a4.224 4.224 0 0 1 4.224-4.224z" />
                    </g>
                    <g clip-path="url(#vk1ic)">
                        <path fill="#3655c6"
                            d="M115.224 209.875h28.74a4.224 4.224 0 0 1 4.223 4.224v.02a4.224 4.224 0 0 1-4.224 4.225h-28.739a4.224 4.224 0 0 1-4.224-4.225v-.02a4.224 4.224 0 0 1 4.224-4.224z" />
                    </g>
                    <g clip-path="url(#vk1ic)">
                        <path fill="#8440f4"
                            d="M37.506 209.875h37.176a4.224 4.224 0 0 1 4.224 4.224v.02a4.224 4.224 0 0 1-4.224 4.225H37.506a4.224 4.224 0 0 1-4.225-4.225v-.02a4.224 4.224 0 0 1 4.225-4.224z" />
                    </g>
                    <g clip-path="url(#vk1ic)">
                        <path fill="#8440f4"
                            d="M79.75 236.937h47.312a4.219 4.219 0 1 1 0 8.438H79.75a4.219 4.219 0 0 1 0-8.438z" />
                    </g>
                    <g clip-path="url(#vk1ic)">
                        <path fill="#f88676"
                            d="M143.969 236.937h10.968a4.219 4.219 0 1 1 0 8.438H143.97a4.219 4.219 0 0 1 0-8.438z" />
                    </g>
                    <g clip-path="url(#vk1ic)">
                        <path fill="#3655c6"
                            d="M171.844 236.937h28.718a4.219 4.219 0 1 1 0 8.438h-28.718a4.219 4.219 0 0 1 0-8.438z" />
                    </g>
                    <g clip-path="url(#vk1ic)">
                        <path fill="#f2b115"
                            d="M217.469 236.937h6.75a4.219 4.219 0 1 1 0 8.438h-6.75a4.219 4.219 0 0 1 0-8.438z" />
                    </g>
                    <g clip-path="url(#vk1ic)">
                        <path fill="#8440f4"
                            d="M241.125 236.937h37.187a4.219 4.219 0 1 1 0 8.438h-37.187a4.219 4.219 0 0 1 0-8.438z" />
                    </g>
                </g>
            </g>
            <g />
        </g>
    </g>
</svg>