<?xml version="1.0" standalone="no"?>
<svg version="1.0" xmlns="http://www.w3.org/2000/svg" width="1920.000000pt" height="198.000000pt"
    viewBox="0 0 1920.000000 198.000000" preserveAspectRatio="xMidYMid meet">
    <g transform="translate(0.000000,198.000000) scale(0.100000,-0.100000)" fill="#fa5153" stroke="none">
        <path d="M0 1815 l0 -165 193 0 c527 0 1243 -72 1902 -191 651 -118 1207 -254
2439 -599 1206 -337 1647 -449 2261 -574 959 -194 1763 -279 2670 -279 1213
-1 2283 143 3688 494 312 78 615 159 1392 374 1215 336 1871 490 2560 604 635
104 1190 157 1773 168 l322 6 0 164 0 163 -9600 0 -9600 0 0 -165z" />
    </g>
</svg>